Coordinates
version=1
nRows=16
nColumns=40
inDegrees=yes

Units are S.I. units (second, meters, Newtons, ...)
If the header above contains a line with 'inDegrees', this indicates whether rotational values are in degrees (yes) or radians (no).

endheader
time	pelvis_tilt	pelvis_list	pelvis_rotation	pelvis_tx	pelvis_ty	pelvis_tz	hip_flexion_r	hip_adduction_r	hip_rotation_r	knee_angle_r	knee_angle_r_beta	ankle_angle_r	subtalar_angle_r	mtp_angle_r	hip_flexion_l	hip_adduction_l	hip_rotation_l	knee_angle_l	knee_angle_l_beta	ankle_angle_l	subtalar_angle_l	mtp_angle_l	lumbar_extension	lumbar_bending	lumbar_rotation	arm_flex_r	arm_add_r	arm_rot_r	elbow_flex_r	pro_sup_r	wrist_flex_r	wrist_dev_r	arm_flex_l	arm_add_l	arm_rot_l	elbow_flex_l	pro_sup_l	wrist_flex_l	wrist_dev_l
      3.50000000	    -28.02940719	     -1.96248707	      0.75520694	     -0.33735111	      0.69983359	     -0.97816475	     28.77544902	     -6.36763706	     10.85951332	     89.32233531	      1.55896885	    -22.84909209	      0.00000000	      0.00000000	     83.48177767	     -3.15648362	     -3.94718035	     92.76715889	      1.61909236	     24.53974516	      0.00000000	      0.00000000	    -14.73337562	    -10.33267793	      8.38620927	     79.56862967	     -6.31919023	     25.20119789	     77.29097626	     87.09293332	      0.00000000	      0.00000000	     86.23792215	    -14.41727301	     36.00294962	     76.99641157	     73.07691895	      0.00000000	      0.00000000
      3.50500000	    -28.02353776	     -1.94097113	      0.76108838	     -0.33721106	      0.69962712	     -0.97816580	     28.74021931	     -6.40248522	     10.83992802	     89.26948242	      1.55804639	    -22.92907985	      0.00000000	      0.00000000	     83.48362181	     -3.11632236	     -3.95815294	     92.72319690	      1.61832508	     24.74870902	      0.00000000	      0.00000000	    -14.80900647	    -10.37490322	      8.39631559	     79.56722618	     -6.33233004	     25.22972723	     77.25966031	     87.12489006	      0.00000000	      0.00000000	     86.22624216	    -14.41131264	     36.18952421	     77.10213034	     69.70793618	      0.00000000	      0.00000000
      3.51000000	    -28.01091331	     -1.88783381	      0.77528899	     -0.33710223	      0.69932617	     -0.97824019	     28.69458088	     -6.49196117	     10.83576875	     89.17610759	      1.55641669	    -23.04744456	      0.00000000	      0.00000000	     83.48642484	     -3.04831303	     -3.99494141	     92.77341702	      1.61920159	     24.84164341	      0.00000000	      0.00000000	    -14.90398309	    -10.43289322	      8.34640098	     79.56813905	     -6.28589956	     25.21998901	     77.25215613	     86.83926066	      0.00000000	      0.00000000	     86.26363654	    -14.50586500	     36.53768717	     77.22132356	     66.65368698	      0.00000000	      0.00000000
      3.51500000	    -28.15358631	     -2.04596818	      0.79935761	     -0.33717068	      0.69878449	     -0.97822172	     28.79314267	     -6.32436108	     10.73590421	     89.17029995	      1.55631533	    -22.67114960	      0.00000000	      0.00000000	     83.75398480	     -3.04251718	     -3.79586842	     92.86715181	      1.62083757	     24.62988751	      0.00000000	      0.00000000	    -14.81032372	    -10.23424969	      8.34350492	     79.66793536	     -6.27381827	     25.48876433	     77.09558779	     86.82404293	      0.00000000	      0.00000000	     86.24550566	    -14.65289427	     36.62779956	     77.38678296	     64.80529831	      0.00000000	      0.00000000
      3.52000000	    -28.16567441	     -2.04823414	      0.78711037	     -0.33706632	      0.69853217	     -0.97818760	     28.80730580	     -6.31924952	     10.74558719	     89.14352022	      1.55584793	    -22.88705300	      0.00000000	      0.00000000	     83.76578148	     -3.02552169	     -3.77739555	     92.90982047	      1.62158227	     24.79096233	      0.00000000	      0.00000000	    -14.85032178	    -10.25846580	      8.38914332	     79.60850573	     -6.22844797	     25.32104339	     77.17315179	     87.09967985	      0.00000000	      0.00000000	     86.17588416	    -14.50853369	     35.92773694	     76.93383506	     73.03326998	      0.00000000	      0.00000000
      3.52500000	    -28.16448665	     -2.01312401	      0.82062432	     -0.33699135	      0.69841476	     -0.97830280	     28.77419450	     -6.38897217	     10.75548704	     89.05968436	      1.55438472	    -23.03487544	      0.00000000	      0.00000000	     83.75863685	     -2.92353939	     -3.75584462	     92.90902983	      1.62156848	     24.92445632	      0.00000000	      0.00000000	    -14.94200489	    -10.29852536	      8.36180990	     79.65635564	     -6.25232388	     25.37552853	     77.13298048	     87.06727293	      0.00000000	      0.00000000	     86.15295253	    -14.54743724	     36.22987230	     77.15191731	     69.31265162	      0.00000000	      0.00000000
      3.53000000	    -28.18257942	     -2.02796437	      0.80551582	     -0.33689075	      0.69820171	     -0.97823093	     28.78422400	     -6.36092235	     10.75838136	     89.03082739	      1.55388107	    -22.96359703	      0.00000000	      0.00000000	     83.81161934	     -2.90395476	     -3.69034544	     93.02947229	      1.62367059	     24.56712201	      0.00000000	      0.00000000	    -14.98362435	    -10.29347581	      8.39227355	     79.69762675	     -6.22938424	     25.44584501	     77.01148118	     86.98559525	      0.00000000	      0.00000000	     86.15696622	    -14.60337088	     36.39854757	     77.23195039	     66.74838405	      0.00000000	      0.00000000
      3.53500000	    -28.23842615	     -2.01353341	      0.74494134	     -0.33680255	      0.69796473	     -0.97810983	     28.87632156	     -6.33449152	     10.75043672	     89.05140118	      1.55424015	    -23.04673217	      0.00000000	      0.00000000	     83.86533138	     -2.91529332	     -3.66430465	     93.05202929	      1.62406429	     24.72077106	      0.00000000	      0.00000000	    -14.97472195	    -10.32411304	      8.44599911	     79.65300842	     -6.15245797	     25.36590339	     76.99164909	     87.13154968	      0.00000000	      0.00000000	     86.09360109	    -14.63096185	     36.46250783	     77.35192008	     64.98824518	      0.00000000	      0.00000000
      3.54000000	    -28.21499176	     -1.93956281	      0.69175089	     -0.33663422	      0.69792052	     -0.97803306	     28.87352757	     -6.35970450	     10.85122891	     89.06419324	      1.55446342	    -23.01736985	      0.00000000	      0.00000000	     83.79947883	     -2.92742776	     -3.74393128	     93.05716241	      1.62415388	     24.84161406	      0.00000000	      0.00000000	    -15.06710711	    -10.42788623	      8.49286479	     79.65788666	     -6.18700068	     25.35451784	     77.02755455	     87.06098607	      0.00000000	      0.00000000	     86.04792248	    -14.68737042	     36.53271917	     77.45170413	     63.87739060	      0.00000000	      0.00000000
      3.54500000	    -28.27796815	     -1.97303775	      0.61386088	     -0.33645906	      0.69774527	     -0.97788358	     28.90147283	     -6.28032567	     10.88582129	     88.99439969	      1.55324529	    -22.83106605	      0.00000000	      0.00000000	     83.88626754	     -2.98099439	     -3.66061505	     93.11280425	      1.62512501	     24.79509318	      0.00000000	      0.00000000	    -15.03887390	    -10.42254795	      8.60801626	     79.64677129	     -6.14044732	     25.39664925	     76.97681371	     87.08567619	      0.00000000	      0.00000000	     86.05203096	    -14.60345203	     35.87504666	     76.99646590	     73.18158103	      0.00000000	      0.00000000
      3.55000000	    -28.25435566	     -1.84560933	      0.51524926	     -0.33611520	      0.69769647	     -0.97775897	     28.89671607	     -6.36026901	     11.00357878	     88.96706991	      1.55276830	    -23.03148471	      0.00000000	      0.00000000	     83.77195948	     -3.04756804	     -3.81445058	     93.08077375	      1.62456597	     25.06650746	      0.00000000	      0.00000000	    -15.11148209	    -10.62835020	      8.71176388	     79.52030156	     -6.13913950	     25.21325746	     77.11709600	     86.91310320	      0.00000000	      0.00000000	     86.07972519	    -14.57110416	     36.31143539	     77.13551768	     68.19199874	      0.00000000	      0.00000000
      3.55500000	    -28.33471833	     -1.89837074	      0.46601321	     -0.33605847	      0.69750241	     -0.97759932	     28.98144663	     -6.28107094	     11.00468486	     88.94585737	      1.55239807	    -22.98116839	      0.00000000	      0.00000000	     83.90127100	     -3.07637842	     -3.70082373	     93.15280878	      1.62582322	     24.96904807	      0.00000000	      0.00000000	    -15.05585279	    -10.58307593	      8.74203285	     79.54962777	     -6.10490241	     25.33986198	     76.98539398	     86.95598430	      0.00000000	      0.00000000	     86.01145492	    -14.66657554	     36.37294808	     77.25770469	     65.90855177	      0.00000000	      0.00000000
      3.56000000	    -28.41514333	     -1.93321559	      0.40146042	     -0.33599852	      0.69736275	     -0.97747001	     29.07561449	     -6.16679711	     11.04294979	     88.99532014	      1.55326136	    -22.65333240	      0.00000000	      0.00000000	     84.01136761	     -3.10578164	     -3.59008545	     93.18527016	      1.62638978	     24.82826753	      0.00000000	      0.00000000	    -15.00974033	    -10.54444660	      8.82991058	     79.54791927	     -6.10708962	     25.43120555	     76.96762758	     87.11648370	      0.00000000	      0.00000000	     85.92795820	    -14.69860152	     35.90024362	     77.04531652	     72.97837016	      0.00000000	      0.00000000
      3.56500000	    -28.48404126	     -1.99007116	      0.42768736	     -0.33589413	      0.69721258	     -0.97744925	     29.13909510	     -6.13085028	     10.92159443	     88.98676906	      1.55311211	    -22.68685288	      0.00000000	      0.00000000	     84.11268744	     -3.10939865	     -3.53544646	     93.23556438	      1.62726758	     24.79417315	      0.00000000	      0.00000000	    -14.99443510	    -10.50159961	      8.79166724	     79.52119843	     -6.01462536	     25.39158942	     76.88654505	     87.14125175	      0.00000000	      0.00000000	     85.89850754	    -14.78643965	     36.15638978	     77.25947167	     69.62149794	      0.00000000	      0.00000000
      3.57000000	    -28.55026556	     -2.03195828	      0.44360014	     -0.33578993	      0.69709617	     -0.97752993	     29.18869616	     -6.07749557	     10.87647132	     88.97938144	      1.55298317	    -22.53473534	      0.00000000	      0.00000000	     84.21000591	     -3.04717463	     -3.41213833	     93.26535134	      1.62778746	     24.64108075	      0.00000000	      0.00000000	    -14.96262254	    -10.43187024	      8.75870892	     79.51319609	     -5.98271440	     25.48485078	     76.80998495	     87.28428186	      0.00000000	      0.00000000	     85.80587169	    -14.91322493	     36.30488397	     77.42492769	     66.77371556	      0.00000000	      0.00000000
      3.57500000	    -28.47616286	     -1.83263193	      0.37525279	     -0.33530942	      0.69733583	     -0.97759930	     29.09416337	     -6.28037718	     10.98747006	     88.91475832	      1.55185529	    -22.60971100	      0.00000000	      0.00000000	     84.00673616	     -3.03895193	     -3.61156535	     93.21316252	      1.62687659	     24.82077595	      0.00000000	      0.00000000	    -15.09085255	    -10.68074768	      8.80495624	     79.42348618	     -5.97840754	     25.41097744	     76.93370553	     87.10221783	      0.00000000	      0.00000000	     85.80490845	    -14.81770704	     35.82614293	     77.05447067	     73.23931133	      0.00000000	      0.00000000
